<svg width="67" height="60" viewBox="0 0 67 60" fill="none" xmlns="http://www.w3.org/2000/svg">
<path fill-rule="evenodd" clip-rule="evenodd" d="M33.5 60L60.9178 33.2727H60.8981C60.9015 33.2696 60.9049 33.2664 60.9083 33.2633C60.9115 33.2603 60.9146 33.2573 60.9178 33.2543C61.3763 32.8245 61.8137 32.373 62.2282 31.9013C65.2008 28.519 67 24.1034 67 19.2727C67 8.62868 58.2646 0 47.489 0C42.4727 0 37.8986 1.86993 34.442 4.94264C34.118 5.23066 33.8038 5.52924 33.5 5.83785C33.1962 5.52924 32.882 5.23065 32.558 4.94263C29.1014 1.86992 24.5273 0 19.511 0C8.7354 0 0 8.62868 0 19.2727C0 24.1034 1.79919 28.519 4.77183 31.9013C5.18636 32.373 5.62371 32.8245 6.08218 33.2543C6.08536 33.2573 6.08855 33.2603 6.09174 33.2633C6.09511 33.2664 6.09848 33.2696 6.10186 33.2727H6.08218L33.5 60ZM9.47086 34.6442H9.59381L7.06403 32.2792C3.57261 29.0152 1.39583 24.397 1.39583 19.2727C1.39583 9.37918 9.51333 1.37143 19.511 1.37143C24.6027 1.37143 29.203 3.44561 32.4967 6.79131L33.5 7.81045L34.5033 6.79131C37.797 3.44561 42.3973 1.37143 47.489 1.37143C57.4867 1.37143 65.6042 9.37918 65.6042 19.2727C65.6042 24.397 63.4274 29.0152 59.936 32.2792L57.4062 34.6442H57.5291L33.5 58.0681L9.47086 34.6442Z" fill="#0D00FF"/>
</svg>
