<svg width="73" height="66" viewBox="0 0 73 66" fill="none" xmlns="http://www.w3.org/2000/svg">
<path fill-rule="evenodd" clip-rule="evenodd" d="M60.1616 44.5406L60.4268 43.892C61.896 40.2987 62.7068 36.3626 62.7068 32.2326C62.7068 15.2642 49.0058 1.50857 32.1047 1.50857C15.2036 1.50857 1.50259 15.2642 1.50259 32.2326C1.50259 49.2009 15.2036 62.9565 32.1047 62.9565C38.1778 62.9565 43.8335 61.182 48.5909 58.1217L49.1572 57.7573L70.0654 63.6121L60.1616 44.5406ZM73 66L49.4015 59.3919C44.4094 62.6032 38.4736 64.4651 32.1047 64.4651C14.3738 64.4651 0 50.0341 0 32.2326C0 14.431 14.3738 0 32.1047 0C49.8357 0 64.2094 14.431 64.2094 32.2326C64.2094 36.5625 63.359 40.693 61.8168 44.4649L73 66Z" fill="#900A93"/>
</svg>
