<svg width="80" height="80" viewBox="0 0 80 80" fill="none" xmlns="http://www.w3.org/2000/svg">
<path d="M43.2 50.4C41.4 50.4 39.4 50 37.8 49C36.2 48.2 35 46.8 34 45.2C32.2 41.8 32.2 37.8 34 34.4C34.8 32.8 36.2 31.6 37.8 30.6C39.4 29.6 41.4 29.2 43.2 29.2C46.2 29.2 49.2 30.4 51.2 32.8C51.2 32.8 51.4 33 51.6 33C51.8 33 51.8 33 52 32.8L56 28.8C56.2 28.6 56.2 28.4 56 28.2C54.6 26.6 52.8 25.2 50.6 24.4C48.2 23.4 45.6 22.8 42.8 22.8C39.6 22.8 36.6 23.4 33.8 25C31.2 26.4 29 28.4 27.4 31C25.8 33.6 25 36.6 25 39.8C25 42.8 25.8 45.8 27.4 48.6C29 51.2 31.2 53.2 33.8 54.6C36.6 56 39.8 56.8 42.8 56.8C45.4 56.8 48 56.4 50.6 55.4C52.4 54.6 54.2 53.4 55.6 52C55.8 51.8 55.8 51.6 55.6 51.4L51.8 47C51.8 47 51.6 46.8 51.4 46.8C51.2 46.8 51.2 46.8 51 47C49.2 49.2 46.2 50.4 43.2 50.4Z" fill="#0F1735"/>
<path d="M63.4 21.8L59.8 25.2C59.8 25.2 59.6 25.4 59.4 25.4C59.2 25.4 59.2 25.4 59 25.2C52 17.2 40.6 15 31.2 19.8C21.8 24.6 17 35.4 19.6 45.6C22.2 55.8 31.4 62.8 42 62.8C42.2 62.8 42.4 62.8 42.4 63C42.4 64.2 42.2 68.2 42.2 68.2C42.2 68.4 42 68.6 41.8 68.6C29.4 68.8 18.4 60.8 14.6 49C11.8 40.2 13.2 30.6 18.6 23.2C24 15.8 32.6 11.4 41.8 11.4C50 11.4 57.8 15 63.2 21.2C63.6 21.2 63.6 21.6 63.4 21.8Z" fill="url(#paint0_linear_37_142)"/>
<path d="M41 80C23.6 79.6 8.40001 68 3.60001 51.2C-1.39999 34.4 5.20001 16.6 19.6 6.8C26.2 2.2 34 0 42 0C42.2 0 42.4 0.2 42.4 0.4V5.6C42.4 5.8 42.4 5.8 42.2 5.8C35.4 5.8 28.6 7.6 23 11.4C10.6 19.8 5.00001 35.2 9.20001 49.6C13.4 64 26.6 74 41.6 74.2H42C47.8 74.2 53.6 72.8 58.8 69.8C59 69.8 59.2 69.8 59.4 70L61.8 74.2V74.6C61.8 74.8 61.6 74.8 61.6 74.8C55.6 78.2 49 80 42 80H41Z" fill="url(#paint1_linear_37_142)"/>
<defs>
<linearGradient id="paint0_linear_37_142" x1="16.169" y1="56.1834" x2="62.666" y2="20.564" gradientUnits="userSpaceOnUse">
<stop stop-color="#F7AC1E"/>
<stop offset="1" stop-color="#DC3B55"/>
</linearGradient>
<linearGradient id="paint1_linear_37_142" x1="31.9626" y1="-0.7036" x2="31.9626" y2="81.0966" gradientUnits="userSpaceOnUse">
<stop stop-color="#385CFA"/>
<stop offset="1" stop-color="#94C2FC"/>
</linearGradient>
</defs>
</svg>
